FFmpeg version SVN-r25716, Copyright (c) 2000-2010 the FFmpeg developers  built on Nov 10 2010 12:23:18 with gcc 4.1.2 20080704 (Red Hat 4.1.2-48)  configuration: --enable-libmp3lame --enable-shared --disable-mmx --arch=x86_64  libavutil     50.33. 0 / 50.33. 0  libavcore      0.12. 1 /  0.12. 1  libavcodec    52.94. 4 / 52.94. 4  libavformat   52.84. 0 / 52.84. 0  libavdevice   52. 2. 2 / 52. 2. 2  libavfilter    1.59. 0 /  1.59. 0  libswscale     0.12. 0 /  0.12. 0Seems stream 0 codec frame rate differs from container frame rate: 1200.00 (1200/1) -> 15.00 (15/1)Input #0, mov,mp4,m4a,3gp,3g2,mj2, from '/RAID10/data/converted_video_files/42157.mov':  Metadata:    major_brand     : qt      minor_version   : 537199360    compatible_brands: qt    Duration: 00:00:13.93, start: 0.000000, bitrate: 9490 kb/s    Stream #0.0(eng): Video: h264, yuv420p, 1000x1000, 9487 kb/s, 15 fps, 15 tbr, 600 tbn, 1200 tbc[buffer @ 0x1e70cb20] w:1000 h:1000 pixfmt:yuv420pOutput #0, flv, to '/RAID10/data/converted_video_files/42157.flv':  Metadata:    encoder         : Lavf52.84.0    Stream #0.0(eng): Video: flv, yuv420p, 1000x1000, q=2-31, 600 kb/s, 1k tbn, 24 tbcStream mapping:  Stream #0.0 -> #0.0Press [q] to stop encodingframe=    7 fps=  0 q=9.5 size=     393kB time=0.46 bitrate=7006.8kbits/s    frame=   16 fps= 15 q=31.0 size=     471kB time=1.04 bitrate=3704.7kbits/s    frame=   25 fps= 16 q=24.8 size=     532kB time=1.62 bitrate=2679.5kbits/s    frame=   34 fps= 16 q=31.0 size=     570kB time=2.25 bitrate=2075.8kbits/s    frame=   46 fps= 17 q=31.0 size=     647kB time=3.04 bitrate=1741.7kbits/s    frame=   56 fps= 18 q=31.0 size=     715kB time=3.71 bitrate=1579.1kbits/s    frame=   66 fps= 18 q=31.0 size=     791kB time=4.38 bitrate=1481.9kbits/s    frame=   77 fps= 18 q=31.0 size=     852kB time=5.12 bitrate=1362.7kbits/s    frame=   88 fps= 19 q=31.0 size=     911kB time=5.83 bitrate=1279.6kbits/s    frame=  100 fps= 19 q=31.0 size=     975kB time=6.62 bitrate=1205.8kbits/s    frame=  113 fps= 19 q=31.0 size=    1042kB time=7.50 bitrate=1138.6kbits/s    frame=  125 fps= 20 q=31.0 size=    1123kB time=8.29 bitrate=1110.0kbits/s    frame=  137 fps= 20 q=31.0 size=    1193kB time=9.12 bitrate=1071.1kbits/s    frame=  150 fps= 20 q=31.0 size=    1268kB time=9.96 bitrate=1042.8kbits/s    frame=  162 fps= 20 q=31.0 size=    1340kB time=10.75 bitrate=1020.8kbits/s    frame=  172 fps= 21 q=31.0 size=    1405kB time=11.46 bitrate=1004.4kbits/s    frame=  184 fps= 21 q=31.0 size=    1478kB time=12.25 bitrate= 988.1kbits/s    frame=  194 fps= 21 q=31.0 size=    1544kB time=12.92 bitrate= 979.5kbits/s    frame=  206 fps= 21 q=31.0 size=    1621kB time=13.71 bitrate= 968.7kbits/s    frame=  209 fps= 21 q=31.0 Lsize=    1632kB time=13.92 bitrate= 960.5kbits/s    video:1628kB audio:0kB global headers:0kB muxing overhead 0.213170%